<svg height="512pt" viewBox="0 -31 512.001 512" width="512pt" xmlns="http://www.w3.org/2000/svg"><path d="m497.207031 313.933594v-82.320313c0-6.75-2.785156-63.328125-63.328125-63.328125h-23.089844v-48.539062c6.96875-4.730469 11.554688-12.714844 11.554688-21.753906v-9.484376c0-14.488281-11.785156-26.277343-26.273438-26.277343h-21.867187c-14.484375 0-26.273437 11.789062-26.273437 26.277343v9.484376c0 9.039062 4.585937 17.023437 11.554687 21.753906v48.539062h-20.679687l-35.578126-121.015625c9.910157-3.011719 17.148438-12.230469 17.148438-23.113281 0-13.320312-10.835938-24.15625-24.15625-24.15625h-29.539062c-4.144532 0-7.5 3.359375-7.5 7.5 0 4.144531 3.355468 7.5 7.5 7.5h29.539062c5.050781 0 9.15625 4.105469 9.15625 9.15625 0 5.046875-4.105469 9.152344-9.15625 9.152344h-220.230469c-5.046875 0-9.152343-4.105469-9.152343-9.152344 0-5.050781 4.105468-9.15625 9.152343-9.15625h160.773438c4.144531 0 7.5-3.355469 7.5-7.5 0-4.140625-3.355469-7.5-7.5-7.5h-160.773438c-13.316406 0-24.152343 10.835938-24.152343 24.15625 0 11.53125 8.128906 21.199219 18.953124 23.582031v122.253907c-11.101562 3.988281-21.847656 9.089843-31.878906 15.527343-34.628906 22.222657-11.160156 60.121094-11.160156 60.121094-2.976562 3.710937-5.765625 7.585937-8.324219 11.636719-12.707031 20.121094-19.425781 43.394531-19.425781 67.304687 0 69.582031 56.613281 126.195313 126.195312 126.195313 46.527344 0 87.25-25.3125 109.132813-62.886719h104.242187c10.851563 36.328125 44.570313 62.886719 84.378907 62.886719 48.554687 0 88.050781-39.5 88.050781-88.050782 0-18.035156-5.453125-34.816406-14.792969-48.792968zm-134.277343-225.429688c0-6.214844 5.058593-11.273437 11.273437-11.273437h21.867187c6.214844 0 11.273438 5.058593 11.273438 11.273437v9.488282c0 6.21875-5.058594 11.273437-11.273438 11.273437h-21.867187c-6.214844 0-11.273437-5.058594-11.273437-11.273437zm11.550781 35.765625h21.308593v44.015625h-21.308593zm-51.3125 44.015625h-117.5625v-119.976562h82.289062zm-237.378907-119.976562h104.816407v119.976562h-14.125c-15.960938-5.164062-32.882813-7.9375-50.285157-7.9375-13.714843 0-27.277343 1.71875-40.40625 5.054688zm40.40625 387.46875c-61.3125 0-111.195312-49.882813-111.195312-111.195313 0-42.457031 23.617188-80.609375 61.636719-99.570312 3.707031-1.851563 5.210937-6.351563 3.363281-10.058594-1.851562-3.707031-6.351562-5.214844-10.058594-3.367187-11.453125 5.714843-21.910156 13.113281-31.070312 21.894531 0 0-12.894532-22.121094 8.03125-35.269531 23.761718-14.929688 51.164062-22.863282 79.292968-22.863282 66.933594 0 126.101563 45.074219 143.894532 109.609375 2.097656 7.605469.53125 15.601563-4.289063 21.9375-3.503906 4.597657-8.300781 7.796875-13.695312 9.265625-4.347657-65.671875-59.15625-117.777344-125.910157-117.777344-8.617187 0-17.230468.875-25.597656 2.601563-4.058594.835937-6.667968 4.800781-5.832031 8.859375s4.800781 6.667969 8.855469 5.832031c7.375-1.519531 14.972656-2.292969 22.574218-2.292969 61.3125 0 111.195313 49.882813 111.195313 111.199219.003906 61.3125-49.878906 111.195313-111.195313 111.195313zm116.578126-62.886719c5.351562-12.867187 8.636718-26.804687 9.429687-41.394531 10.105469-1.71875 19.164063-7.160156 25.53125-15.511719 7.6875-10.09375 10.171875-22.855469 6.816406-35.015625-11.578125-41.992188-39.078125-76.492188-74.847656-97.683594h224.175781c17.515625 0 32.886719 9.371094 41.359375 23.359375h-32.183593c-14.671876 0-26.605469 11.933594-26.605469 26.605469 0 14.667969 11.933593 26.605469 26.605469 26.605469h12.457031c4.144531 0 7.5-3.355469 7.5-7.5 0-4.140625-3.355469-7.5-7.5-7.5h-12.457031c-6.398438 0-11.605469-5.207031-11.605469-11.605469s5.207031-11.605469 11.605469-11.605469h38.109374c.679688 3.21875 1.042969 6.550781 1.042969 9.96875v65.152344c-15.535156-13.738281-35.9375-22.089844-58.257812-22.089844-48.550781 0-88.050781 39.5-88.050781 88.050781 0 3.4375.203124 6.828126.589843 10.164063zm181.175781 62.886719c-40.28125 0-73.050781-32.769532-73.050781-73.050782 0-40.277343 32.769531-73.050781 73.050781-73.050781s73.050781 32.773438 73.050781 73.050781c0 40.28125-32.769531 73.050782-73.050781 73.050782zm0 0"/><path d="m126.195312 262.609375c-34.167968 0-61.96875 27.800781-61.96875 61.972656s27.800782 61.96875 61.96875 61.96875c34.171876 0 61.972657-27.796875 61.972657-61.96875s-27.800781-61.972656-61.972657-61.972656zm0 108.941406c-25.898437 0-46.96875-21.070312-46.96875-46.96875 0-25.902343 21.070313-46.972656 46.96875-46.972656 25.902344 0 46.972657 21.070313 46.972657 46.972656 0 25.898438-21.070313 46.96875-46.972657 46.96875zm0 0"/><path d="m423.949219 321.960938c-22.480469 0-40.769531 18.289062-40.769531 40.765624 0 22.480469 18.289062 40.769532 40.769531 40.769532s40.769531-18.289063 40.769531-40.769532c0-22.480468-18.289062-40.765624-40.769531-40.765624zm0 66.535156c-14.210938 0-25.769531-11.558594-25.769531-25.769532 0-14.207031 11.5625-25.765624 25.769531-25.765624s25.769531 11.558593 25.769531 25.765624c0 14.210938-11.5625 25.769532-25.769531 25.769532zm0 0"/></svg>