<svg height="454pt" viewBox="0 -20 454.71993 454" width="454pt" xmlns="http://www.w3.org/2000/svg"><path d="m227.589844 58.179688c-98.054688 0-177.824219 79.769531-177.824219 177.820312-.039063 41.03125 14.179687 80.800781 40.222656 112.507812l-34.683593 43.644532c-3.4375 4.324218-2.71875 10.613281 1.605468 14.050781 4.324219 3.4375 10.617188 2.71875 14.054688-1.605469l32.71875-41.175781c68.929687 67.207031 178.867187 67.207031 247.796875 0l32.722656 41.175781c3.4375 4.324219 9.726563 5.042969 14.050781 1.609375 4.324219-3.4375 5.046875-9.726562 1.609375-14.050781l-34.675781-43.648438c26.042969-31.707031 40.261719-71.476562 40.21875-112.511718 0-98.046875-79.769531-177.816406-177.816406-177.816406zm0 335.644531c-87.027344 0-157.824219-70.800781-157.824219-157.824219s70.792969-157.824219 157.824219-157.824219c87.027344 0 157.820312 70.800781 157.820312 157.824219s-70.804687 157.824219-157.820312 157.824219zm0 0"/><path d="m158.605469 34.140625c0-2.652344-1.050781-5.195313-2.925781-7.070313-35.613282-35.613281-93.355469-35.613281-128.96875 0-35.613282 35.613282-35.613282 93.355469 0 128.96875 3.90625 3.902344 10.234374 3.902344 14.140624 0l114.828126-114.824218c1.875-1.878906 2.929687-4.421875 2.925781-7.074219zm-124.332031 100.195313c-21.277344-28.355469-18.472657-68.042969 6.578124-93.125 25.09375-25.03125 64.761719-27.832032 93.121094-6.574219zm0 0"/><path d="m428.457031 27.070312c-35.640625-35.554687-93.332031-35.554687-128.96875 0-3.90625 3.90625-3.90625 10.238282 0 14.140626l114.824219 114.828124c1.878906 1.875 4.421875 2.929688 7.074219 2.929688h.082031c2.679688-.023438 5.238281-1.121094 7.101562-3.046875 34.910157-36.074219 34.859376-93.875-.113281-128.851563zm-7.691406 107.136719-99.570313-99.570312c28.359376-21.253907 68.027344-18.453125 93.117188 6.578125 24.910156 24.90625 27.050781 64.726562 6.453125 92.992187zm0 0"/><path d="m300.125 180.796875-77.371094 65.039063-58.648437-39.929688c-4.5625-3.105469-10.785157-1.925781-13.890625 2.640625-3.109375 4.5625-1.929688 10.785156 2.636718 13.894531l64.910157 44.191406c3.703125 2.523438 8.628906 2.273438 12.058593-.609374l83.171876-69.917969c2.765624-2.289063 4.09375-5.886719 3.476562-9.421875-.621094-3.539063-3.085938-6.472656-6.464844-7.691406-3.378906-1.214844-7.148437-.527344-9.878906 1.804687zm0 0"/></svg>