<?xml version="1.0" encoding="iso-8859-1"?>
<!-- Generator: Adobe Illustrator 19.0.0, SVG Export Plug-In . SVG Version: 6.00 Build 0)  -->
<svg version="1.1" id="Capa_1" xmlns="http://www.w3.org/2000/svg" xmlns:xlink="http://www.w3.org/1999/xlink" x="0px" y="0px"
	 viewBox="0 0 210.471 210.471" style="enable-background:new 0 0 210.471 210.471;" xml:space="preserve">
<g>
	<g>
		<path d="M179.198,44.671c0.842-1.462,1.528-3.007,2.053-4.61c4.211-12.889-2.848-26.802-15.736-31.015
			c-4.129-1.348-8.508-1.58-12.727-0.682c-3.203-3.119-7.127-5.493-11.39-6.887c-9.425-3.079-19.835-1.158-27.552,5
			c-2.774-2.246-5.911-3.948-9.347-5.071C92.588-2.488,79.359,1.889,71.392,12.3c-7.295-0.794-14.487,2.038-19.227,7.53
			c-12.289,1.953-21.384,12.505-21.384,25.111c0,4.07,0.986,8.029,2.942,11.805c-6.778,4.376-11.027,12.353-11.027,21.072
			c0,6.641,2.541,12.925,7.153,17.696c4.468,4.622,10.41,7.34,16.787,7.692c3.501,4.172,8.519,6.55,13.875,6.55
			c0.39,0,0.855-0.007,1.362-0.044c0.647,0.79,1.341,1.529,2.069,2.225c10.87,23.196,13.164,63.349,13.164,93.072
			c0,3.013,2.45,5.462,5.462,5.462h31.3c3.014,0,5.467-2.449,5.467-5.462c0-43.873,20.381-79.108,30.894-94.355
			c3.454,1.679,6.925,2.527,10.356,2.527c14.023,0,25.433-11.408,25.433-25.432c0-3.011-0.523-5.954-1.554-8.762
			c0.724-1.396,1.342-2.872,1.846-4.4C189.772,63.991,186.974,52.485,179.198,44.671z M179.897,72.487
			c-0.438,1.331-0.99,2.609-1.645,3.807c-1.134,1.84-0.83,3.436-0.322,4.502c0.889,2.216,1.34,4.556,1.34,6.954
			c0,10.302-8.381,18.682-18.682,18.682c-3.07,0-6.281-1.019-9.555-3.029c-1.658-1.089-5.22-3.799-6.124-4.796
			c-1.253-1.381-3.388-1.484-4.767-0.232c-1.381,1.252-1.484,3.387-0.232,4.767c0.975,1.074,2.9,2.621,4.609,3.902
			c-5.512,8.003-12.711,19.893-18.891,34.805c-8.478,20.456-12.861,41.266-13.037,61.875H83.857
			c-0.061-26.929-2.045-61.854-10.391-86.132c2.511,0.809,5.175,1.238,7.921,1.238c0.594,0,1.187-0.021,1.776-0.062
			c0.54,1.32,1.155,2.734,1.793,4.199c1.932,4.438,4.122,9.47,5.092,13.835c0.337,1.562,1.726,2.679,3.309,2.679
			c0.055,0,0.109-0.001,0.164-0.004c2.527-0.123,3.126-2.438,3.351-3.31c0.137-0.529,0.314-1.271,0.528-2.205
			c0.428-1.874,0.954-4.32,1.482-6.889c0.454-2.207,1.362-6.722,2.009-10.544c1.897,0.445,3.846,0.675,5.809,0.675
			c0.581,0,1.16-0.025,1.737-0.064v23.336c0,1.545,1.049,2.893,2.548,3.271c0.275,0.07,0.553,0.104,0.827,0.104
			c1.218,0,2.37-0.662,2.969-1.771c6.364-11.782,16.927-31.1,18.347-33.085c0.582-0.696,0.781-1.885,0.781-2.61
			c0-1.764-1.511-3.375-3.375-3.375c-1.492,0-2.997-0.183-4.463-0.541c-0.58-0.144-1.107-0.297-1.625-0.473
			c-1.255-0.42-3.054-0.237-4.25,1.124c-0.279,0.32-0.552,0.636-0.818,0.946c-2.293,2.657-3.808,4.415-6.637,5.38
			c-1.945,0.67-3.979,1.01-6.041,1.01c-2.445,0-4.859-0.488-7.107-1.415c-0.101-0.048-0.204-0.091-0.31-0.129
			c-0.725-0.314-1.434-0.672-2.118-1.078c-0.013-0.007-0.028-0.016-0.041-0.023c-1.38-0.797-2.99-0.688-4.195,0.277
			c-1.945,1.549-4.178,2.674-6.638,3.344c-1.578,0.432-3.227,0.65-4.903,0.65c-4.678,0-9.032-1.662-12.362-4.638
			c-0.052-0.049-0.105-0.097-0.16-0.142c-0.76-0.695-1.466-1.46-2.107-2.291l-0.028-0.036c-0.629-0.816-1.94-2.519-4.899-2.043
			c-0.418,0.068-0.924,0.077-1.317,0.077c-3.489,0-6.766-1.638-8.975-4.473c-1.057-1.378-2.277-1.991-4.081-2.048
			c-10.099-0.32-18.01-8.521-18.01-18.669c0-7.15,3.792-13.572,9.687-16.375c1.456-0.709,1.979-1.866,2.16-2.492
			c0.345-1.191,0.117-2.446-0.682-3.74c-2.043-3.281-3.08-6.735-3.08-10.27c0-9.617,7.203-17.606,16.754-18.583
			c0.935-0.097,1.787-0.577,2.352-1.327c3.361-4.462,8.922-6.747,14.501-5.961c2.188,0.312,3.98-0.459,5.333-2.294
			c6.194-8.4,16.613-11.999,25.93-8.954c3.118,1.019,5.914,2.655,8.315,4.868c1.418,1.302,3.959,2.035,6.439-0.181
			c6.018-5.345,14.501-7.114,22.143-4.617c3.513,1.147,6.598,3.064,9.17,5.696c0.019,0.019,0.035,0.036,0.054,0.054
			c1.075,1.053,2.62,2.165,5.044,1.467c3.245-0.814,6.65-0.693,9.852,0.351c9.349,3.057,14.469,13.151,11.414,22.502
			c-0.529,1.617-1.285,3.151-2.229,4.525c-1.332,1.891-1.129,4.243,0.493,5.718c0.02,0.02,0.041,0.037,0.062,0.055
			C180.097,54.269,182.74,63.779,179.897,72.487z M89.892,117.37c1.523-0.538,2.976-1.216,4.352-2.025
			c-0.42,2.492-0.996,5.52-1.583,8.448c-0.508-1.201-1.02-2.378-1.517-3.519C90.708,119.272,90.284,118.297,89.892,117.37z
			 M115.186,127.175v-11.44c4.157-1.489,6.524-4.05,8.907-6.807c0.119,0.031,0.847,0.195,1.088,0.247
			C122.727,113.432,119.046,120.098,115.186,127.175z"/>
	</g>
</g>
<g>
	<g>
		<path d="M162.961,57.459c-2.774-4.038-6.954-6.753-11.772-7.646c-2.693-0.5-5.437-0.388-8.038,0.303
			c-1.67-10.018-9.502-18.299-19.812-20.212c-12.59-2.337-25.017,5.518-28.299,17.877c-0.479,1.802,0.594,3.649,2.396,4.129
			c1.801,0.478,3.65-0.594,4.129-2.396c2.383-8.97,11.412-14.668,20.545-12.974c8.724,1.618,15.002,9.512,14.606,18.362
			c-0.056,1.245,0.58,2.419,1.651,3.054c1.072,0.635,2.407,0.628,3.472-0.019c2.436-1.479,5.317-2.009,8.121-1.488
			c6.282,1.165,10.445,7.225,9.28,13.508c-0.255,1.376-0.747,2.676-1.461,3.862c-0.961,1.597-0.446,3.671,1.151,4.632
			c0.545,0.328,1.145,0.484,1.738,0.484c1.145,0,2.26-0.583,2.895-1.636c1.133-1.882,1.912-3.938,2.314-6.111
			C166.77,66.372,165.734,61.496,162.961,57.459z"/>
	</g>
</g>
<g>
	<g>
		<path d="M99.547,72.973c-1.335-2.635-3.123-4.991-5.313-7.004c-4.851-4.459-11.138-6.763-17.731-6.485
			c-6.583,0.276-12.664,3.101-17.123,7.952c-4.106,4.469-6.414,10.27-6.499,16.335c-0.026,1.863,1.464,3.396,3.328,3.422
			c0.016,0,0.032,0,0.048,0c1.842,0,3.348-1.48,3.374-3.328c0.062-4.404,1.738-8.617,4.719-11.862
			c3.239-3.522,7.656-5.575,12.437-5.775c4.779-0.198,9.356,1.472,12.88,4.711c1.593,1.464,2.891,3.175,3.86,5.086
			c0.842,1.663,2.873,2.326,4.536,1.484C99.725,76.666,100.39,74.635,99.547,72.973z"/>
	</g>
</g>
<g>
</g>
<g>
</g>
<g>
</g>
<g>
</g>
<g>
</g>
<g>
</g>
<g>
</g>
<g>
</g>
<g>
</g>
<g>
</g>
<g>
</g>
<g>
</g>
<g>
</g>
<g>
</g>
<g>
</g>
</svg>
