<?xml version="1.0" encoding="utf-8"?><svg xmlns="http://www.w3.org/2000/svg" xmlns:xlink="http://www.w3.org/1999/xlink"><symbol viewBox="0 0 454 454" id="alarm-clock" xmlns="http://www.w3.org/2000/svg"><path d="M227.59 58.18c-98.055 0-177.824 79.77-177.824 177.82a176.994 176.994 0 0 0 40.222 112.508l-34.683 43.644a9.999 9.999 0 0 0 1.605 14.051c4.324 3.438 10.617 2.719 14.055-1.605l32.719-41.176c68.93 67.207 178.867 67.207 247.796 0l32.723 41.176c3.438 4.324 9.727 5.043 14.05 1.609 4.325-3.437 5.048-9.727 1.61-14.05l-34.675-43.65a176.97 176.97 0 0 0 40.218-112.51c0-98.048-79.77-177.817-177.816-177.817zm0 335.644c-87.028 0-157.824-70.8-157.824-157.824S140.559 78.176 227.59 78.176c87.027 0 157.82 70.8 157.82 157.824s-70.805 157.824-157.82 157.824zm0 0"/><path d="M158.605 34.14a9.996 9.996 0 0 0-2.925-7.07c-35.614-35.613-93.356-35.613-128.97 0-35.612 35.614-35.612 93.356 0 128.97 3.907 3.901 10.235 3.901 14.142 0L155.68 41.214a9.995 9.995 0 0 0 2.925-7.074zM34.273 134.337C12.996 105.98 15.801 66.293 40.852 41.21c25.093-25.031 64.761-27.832 93.12-6.574zM428.457 27.07c-35.64-35.554-93.332-35.554-128.969 0-3.906 3.907-3.906 10.239 0 14.14l114.824 114.83a10.015 10.015 0 0 0 7.075 2.929h.082a10.004 10.004 0 0 0 7.101-3.047c34.91-36.074 34.86-93.875-.113-128.852zm-7.691 107.137l-99.57-99.57c28.359-21.254 68.027-18.453 93.116 6.578 24.91 24.906 27.051 64.726 6.454 92.992zm-120.641 46.59l-77.371 65.039-58.649-39.93c-4.562-3.105-10.785-1.926-13.89 2.64-3.11 4.563-1.93 10.786 2.637 13.895l64.91 44.192a9.992 9.992 0 0 0 12.058-.61l83.172-69.918a10.002 10.002 0 0 0 3.477-9.421 10 10 0 1 0-16.344-5.887zm0 0"/></symbol><symbol viewBox="0 0 167.08 212.96" id="broccoli" xmlns="http://www.w3.org/2000/svg"><path d="M179.198 44.671a24.533 24.533 0 0 0 2.053-4.61c4.211-12.889-2.848-26.802-15.736-31.015a24.512 24.512 0 0 0-12.727-.682 29.548 29.548 0 0 0-11.39-6.887c-9.425-3.079-19.835-1.158-27.552 5a29.177 29.177 0 0 0-9.347-5.071c-11.911-3.894-25.14.483-33.107 10.894-7.295-.794-14.487 2.038-19.227 7.53-12.289 1.953-21.384 12.505-21.384 25.111 0 4.07.986 8.029 2.942 11.805-6.778 4.376-11.027 12.353-11.027 21.072a25.334 25.334 0 0 0 7.153 17.696c4.468 4.622 10.41 7.34 16.787 7.692 3.501 4.172 8.519 6.55 13.875 6.55.39 0 .855-.007 1.362-.044.647.79 1.341 1.529 2.069 2.225 10.87 23.196 13.164 63.349 13.164 93.072a5.467 5.467 0 0 0 5.462 5.462h31.3a5.47 5.47 0 0 0 5.467-5.462c0-43.873 20.381-79.108 30.894-94.355 3.454 1.679 6.925 2.527 10.356 2.527 14.023 0 25.433-11.408 25.433-25.432 0-3.011-.523-5.954-1.554-8.762a29.933 29.933 0 0 0 1.846-4.4 29.396 29.396 0 0 0-7.112-29.916zm.699 27.816a22.8 22.8 0 0 1-1.645 3.807c-1.134 1.84-.83 3.436-.322 4.502a18.595 18.595 0 0 1 1.34 6.954c0 10.302-8.381 18.682-18.682 18.682-3.07 0-6.281-1.019-9.555-3.029-1.658-1.089-5.22-3.799-6.124-4.796a3.375 3.375 0 1 0-4.999 4.535c.975 1.074 2.9 2.621 4.609 3.902-5.512 8.003-12.711 19.893-18.891 34.805-8.478 20.456-12.861 41.266-13.037 61.875H83.857c-.061-26.929-2.045-61.854-10.391-86.132a25.795 25.795 0 0 0 9.697 1.176c.54 1.32 1.155 2.734 1.793 4.199 1.932 4.438 4.122 9.47 5.092 13.835a3.399 3.399 0 0 0 3.473 2.675c2.527-.123 3.126-2.438 3.351-3.31a86.56 86.56 0 0 0 .528-2.205c.428-1.874.954-4.32 1.482-6.889.454-2.207 1.362-6.722 2.009-10.544 1.897.445 3.846.675 5.809.675.581 0 1.16-.025 1.737-.064v23.336a3.373 3.373 0 0 0 3.375 3.375c1.218 0 2.37-.662 2.969-1.771 6.364-11.782 16.927-31.1 18.347-33.085.582-.696.781-1.885.781-2.61 0-1.764-1.511-3.375-3.375-3.375-1.492 0-2.997-.183-4.463-.541a19.869 19.869 0 0 1-1.625-.473c-1.255-.42-3.054-.237-4.25 1.124-.279.32-.552.636-.818.946-2.293 2.657-3.808 4.415-6.637 5.38a18.513 18.513 0 0 1-6.041 1.01c-2.445 0-4.859-.488-7.107-1.415a3.371 3.371 0 0 0-.31-.129 18.735 18.735 0 0 1-2.118-1.078l-.041-.023c-1.38-.797-2.99-.688-4.195.277a18.302 18.302 0 0 1-6.638 3.344c-1.578.432-3.227.65-4.903.65-4.678 0-9.032-1.662-12.362-4.638a3.062 3.062 0 0 0-.16-.142 18.009 18.009 0 0 1-2.107-2.291l-.028-.036c-.629-.816-1.94-2.519-4.899-2.043-.418.068-.924.077-1.317.077-3.489 0-6.766-1.638-8.975-4.473-1.057-1.378-2.277-1.991-4.081-2.048-10.099-.32-18.01-8.521-18.01-18.669 0-7.15 3.792-13.572 9.687-16.375 1.456-.709 1.979-1.866 2.16-2.492.345-1.191.117-2.446-.682-3.74-2.043-3.281-3.08-6.735-3.08-10.27a18.617 18.617 0 0 1 16.754-18.583 3.38 3.38 0 0 0 2.352-1.327c3.361-4.462 8.922-6.747 14.501-5.961 2.188.312 3.98-.459 5.333-2.294 6.194-8.4 16.613-11.999 25.93-8.954a22.482 22.482 0 0 1 8.315 4.868c1.418 1.302 3.959 2.035 6.439-.181 6.018-5.345 14.501-7.114 22.143-4.617a22.426 22.426 0 0 1 9.17 5.696l.054.054c1.075 1.053 2.62 2.165 5.044 1.467a17.78 17.78 0 0 1 9.852.351c9.349 3.057 14.469 13.151 11.414 22.502a17.771 17.771 0 0 1-2.229 4.525c-1.332 1.891-1.129 4.243.493 5.718.02.02.041.037.062.055a22.677 22.677 0 0 1 6.736 24.226zM89.892 117.37a25.016 25.016 0 0 0 4.352-2.025c-.42 2.492-.996 5.52-1.583 8.448a358.53 358.53 0 0 0-1.517-3.519c-.436-1.002-.86-1.977-1.252-2.904zm25.294 9.805v-11.44c4.157-1.489 6.524-4.05 8.907-6.807.119.031.847.195 1.088.247-2.454 4.257-6.135 10.923-9.995 18z"/><path d="M162.961 57.459a18.214 18.214 0 0 0-11.772-7.646 18.292 18.292 0 0 0-8.038.303c-1.67-10.018-9.502-18.299-19.812-20.212-12.59-2.337-25.017 5.518-28.299 17.877a3.376 3.376 0 0 0 6.525 1.733c2.383-8.97 11.412-14.668 20.545-12.974 8.724 1.618 15.002 9.512 14.606 18.362a3.375 3.375 0 0 0 5.123 3.035 11.555 11.555 0 0 1 8.121-1.488c6.282 1.165 10.445 7.225 9.28 13.508a11.539 11.539 0 0 1-1.461 3.862 3.375 3.375 0 1 0 5.784 3.48 18.24 18.24 0 0 0 2.314-6.111 18.223 18.223 0 0 0-2.916-13.729zM99.547 72.973a24.568 24.568 0 0 0-5.313-7.004c-4.851-4.459-11.138-6.763-17.731-6.485-6.583.276-12.664 3.101-17.123 7.952a24.625 24.625 0 0 0-6.499 16.335 3.376 3.376 0 0 0 3.328 3.422h.048a3.375 3.375 0 0 0 3.374-3.328 17.886 17.886 0 0 1 4.719-11.862 17.8 17.8 0 0 1 12.437-5.775 17.821 17.821 0 0 1 12.88 4.711 17.854 17.854 0 0 1 3.86 5.086 3.374 3.374 0 1 0 6.02-3.052z"/></symbol><symbol viewBox="0 0 307.046 307.046" id="next-arrow" xmlns="http://www.w3.org/2000/svg"><path d="M239.087 142.427L101.259 4.597c-6.133-6.129-16.073-6.129-22.203 0L67.955 15.698c-6.129 6.133-6.129 16.076 0 22.201l115.621 115.626-115.621 115.61c-6.129 6.136-6.129 16.086 0 22.209l11.101 11.101c6.13 6.136 16.07 6.136 22.203 0l137.828-137.831c6.135-6.127 6.135-16.058 0-22.187z"/></symbol><symbol viewBox="0 0 512 512" id="tractor" xmlns="http://www.w3.org/2000/svg"><path d="M497.207 313.934v-82.32c0-6.75-2.785-63.329-63.328-63.329h-23.09v-48.539c6.969-4.73 11.555-12.715 11.555-21.754v-9.484c0-14.488-11.785-26.278-26.274-26.278h-21.867c-14.484 0-26.273 11.79-26.273 26.278v9.484c0 9.04 4.586 17.024 11.554 21.754v48.54h-20.68L303.228 47.27c9.91-3.012 17.148-12.23 17.148-23.114C320.375 10.836 309.539 0 296.219 0h-29.54a7.5 7.5 0 0 0-7.5 7.5c0 4.145 3.356 7.5 7.5 7.5h29.54c5.05 0 9.156 4.105 9.156 9.156 0 5.047-4.105 9.153-9.156 9.153H75.989c-5.048 0-9.153-4.106-9.153-9.153 0-5.05 4.105-9.156 9.152-9.156h160.774c4.144 0 7.5-3.355 7.5-7.5a7.5 7.5 0 0 0-7.5-7.5H75.988C62.672 0 51.836 10.836 51.836 24.156c0 11.532 8.129 21.2 18.953 23.582v122.254c-11.102 3.988-21.848 9.09-31.879 15.528-34.629 22.222-11.16 60.12-11.16 60.12a127.01 127.01 0 0 0-8.324 11.637C6.719 277.398 0 300.672 0 324.582c0 69.582 56.613 126.195 126.195 126.195 46.528 0 87.25-25.312 109.133-62.886H339.57c10.852 36.328 44.57 62.886 84.38 62.886 48.554 0 88.05-39.5 88.05-88.05a87.53 87.53 0 0 0-14.793-48.793zM362.93 88.504c0-6.215 5.058-11.274 11.273-11.274h21.867c6.215 0 11.274 5.06 11.274 11.274v9.488c0 6.219-5.059 11.274-11.274 11.274h-21.867c-6.215 0-11.273-5.059-11.273-11.274zm11.55 35.766h21.31v44.015h-21.31zm-51.312 44.015H205.605V48.31h82.29zM85.789 48.31h104.816v119.976H176.48a163.194 163.194 0 0 0-50.285-7.937 164.026 164.026 0 0 0-40.406 5.054zm40.406 387.468C64.883 435.777 15 385.895 15 324.582c0-42.457 23.617-80.61 61.637-99.57a7.502 7.502 0 0 0-6.695-13.426 126.541 126.541 0 0 0-31.07 21.894s-12.895-22.12 8.03-35.27c23.762-14.929 51.164-22.862 79.293-22.862 66.934 0 126.102 45.074 143.895 109.609 2.097 7.606.531 15.602-4.29 21.938-3.503 4.597-8.3 7.796-13.695 9.265-4.347-65.672-59.156-117.777-125.91-117.777-8.617 0-17.23.875-25.597 2.601-4.059.836-6.668 4.801-5.832 8.86s4.8 6.668 8.855 5.832a112.116 112.116 0 0 1 22.574-2.293c61.313 0 111.196 49.883 111.196 111.199.004 61.313-49.88 111.195-111.196 111.195zm116.578-62.886a125.348 125.348 0 0 0 9.43-41.395c10.106-1.719 19.164-7.16 25.531-15.512 7.688-10.093 10.172-22.855 6.817-35.015-11.578-41.992-39.078-76.492-74.848-97.684H433.88c17.516 0 32.887 9.371 41.36 23.36h-32.184c-14.672 0-26.606 11.933-26.606 26.605 0 14.668 11.934 26.605 26.606 26.605h12.457c4.144 0 7.5-3.355 7.5-7.5a7.5 7.5 0 0 0-7.5-7.5h-12.457c-6.399 0-11.606-5.207-11.606-11.605s5.207-11.605 11.606-11.605h38.11a48.19 48.19 0 0 1 1.042 9.968v65.153c-15.535-13.739-35.937-22.09-58.258-22.09-48.55 0-88.05 39.5-88.05 88.05 0 3.438.203 6.829.59 10.165zm181.176 62.886c-40.281 0-73.05-32.77-73.05-73.05 0-40.278 32.769-73.051 73.05-73.051S497 322.449 497 362.726c0 40.282-32.77 73.051-73.05 73.051zm0 0"/><path d="M126.195 262.61c-34.168 0-61.968 27.8-61.968 61.972s27.8 61.969 61.968 61.969c34.172 0 61.973-27.797 61.973-61.969s-27.8-61.973-61.973-61.973zm0 108.94c-25.898 0-46.968-21.07-46.968-46.968 0-25.902 21.07-46.973 46.968-46.973 25.903 0 46.973 21.07 46.973 46.973 0 25.898-21.07 46.969-46.973 46.969zm297.755-49.59c-22.481 0-40.77 18.29-40.77 40.767 0 22.48 18.289 40.77 40.77 40.77s40.769-18.29 40.769-40.77c0-22.48-18.29-40.766-40.77-40.766zm0 66.536c-14.212 0-25.77-11.559-25.77-25.77 0-14.206 11.562-25.765 25.77-25.765s25.769 11.559 25.769 25.766c0 14.21-11.563 25.77-25.77 25.77zm0 0"/></symbol><symbol viewBox="0 0 493 487.8" id="vector" xmlns="http://www.w3.org/2000/svg"><path d="M480.894 160.8l-24.3-24.3c-4.1-4.1-9.6-6.4-15.4-6.4s-11.3 2.3-15.4 6.4l-3.3 3.3c-32.1-21.4-69.4-32.7-108.5-32.8h-.4c-24.3 0-47.8 4.3-69.9 12.7l42.6-42.6c5.4 2.6 11.3 3.9 17.4 3.9 10.8 0 21-4.2 28.6-11.9 7.6-7.6 11.9-17.8 11.9-28.6s-4.2-21-11.9-28.6-17.8-11.9-28.6-11.9-21 4.2-28.6 11.9-11.9 17.8-11.9 28.6c0 6.1 1.4 12.1 3.9 17.4l-76.7 76.7-2.6-2.6c-4.1-4.1-9.6-6.4-15.4-6.4s-11.3 2.3-15.4 6.4l-24.6 24.5c-4.1 4.1-6.4 9.6-6.4 15.4s2.3 11.3 6.4 15.4l2.6 2.6-76.7 76.7c-5.4-2.6-11.3-3.9-17.4-3.9-10.8 0-21 4.2-28.6 11.9-15.8 15.8-15.8 41.5 0 57.2 7.6 7.6 17.8 11.9 28.6 11.9s21-4.2 28.6-11.9c12.4-12.4 15.1-31 7.9-46l42.6-42.6c-8.4 22.2-12.8 45.9-12.7 70.3.1 39.1 11.4 76.4 32.8 108.5l-4.1 4.1c-8.5 8.5-8.5 22.4 0 30.9l24.4 24.4c4.1 4.1 9.6 6.4 15.4 6.4 5.8 0 11.3-2.3 15.4-6.4l24.4-24.4c8.5-8.5 8.5-22.4 0-30.9l-24.4-24.4c-4.1-4.1-9.6-6.4-15.4-6.4-5.8 0-11.3 2.3-15.4 6.4l-.7.7c-35.1-56.9-33.6-130.5 4.7-185.9 2.5 1 5.1 1.5 7.9 1.5 5.8 0 11.3-2.3 15.4-6.4l24.4-24.4c6.3-6.3 7.9-15.5 4.9-23.3 55.4-38.3 129-39.9 185.9-4.7l-1.5 1.5c-8.5 8.5-8.5 22.4 0 30.9l24.4 24.4c4.1 4.1 9.6 6.4 15.4 6.4s11.3-2.3 15.4-6.4l24.4-24.4c8.5-8.4 8.5-22.2-.1-30.8zm-288.1 280.9l-17.1 17.1-17.1-17.1 17.1-17.1 17.1 17.1zm101.2-410.6c2.5-2.5 5.9-3.9 9.5-3.9s7 1.4 9.5 3.9 3.9 5.9 3.9 9.5-1.4 7-3.9 9.5-5.9 3.9-9.5 3.9-7-1.4-9.5-3.9-3.9-5.9-3.9-9.5 1.4-6.9 3.9-9.5zm-243.6 281.7c-2.5 2.5-5.9 3.9-9.5 3.9s-7-1.4-9.5-3.9c-5.3-5.3-5.3-13.8 0-19 2.5-2.5 5.9-3.9 9.5-3.9s7 1.4 9.5 3.9c5.3 5.2 5.3 13.8 0 19zm121.8-123.8l-17.1-17.1 17.1-17.1 8.5 8.5 8.5 8.5-17 17.2zm268.9 4.3l-17.1-17.1 17.1-17.1 17.1 17.1-17.1 17.1z"/></symbol></svg>